<svg width="481" height="105" viewBox="0 0 481 105" fill="none" xmlns="http://www.w3.org/2000/svg">
<path d="M24.2894 0.681641H0.580566V105H24.2894V0.681641Z" fill="white"/>
<path d="M27.4382 25.9711V105H51.147V25.9711C51.147 25.0227 51.7793 24.3905 52.7276 24.3905C53.676 24.3905 54.3082 25.0227 54.3082 25.9711V79.7111C54.3082 94.8847 64.424 105 79.5976 105C94.7713 105 104.887 94.8847 104.887 79.7111V0.681641H81.1782V79.7111C81.1782 80.6594 80.704 81.2916 79.5976 81.2916C78.8073 81.2916 78.017 80.6594 78.017 79.7111V25.9711C78.017 10.7974 67.9013 0.681641 52.7276 0.681641C37.554 0.681641 27.4382 10.7974 27.4382 25.9711Z" fill="white"/>
<path d="M108.011 79.7111V105H131.72V79.7111C131.72 78.7627 132.352 78.1305 133.301 78.1305H160.171C175.344 78.1305 185.46 68.0147 185.46 52.8411C185.46 37.6674 175.344 27.5516 160.171 27.5516H133.301C132.352 27.5516 131.72 26.9194 131.72 25.9711C131.72 25.0227 132.352 24.3905 133.301 24.3905H185.46V0.681641H133.301C118.127 0.681641 108.011 10.7974 108.011 25.9711C108.011 41.1447 118.127 51.2605 133.301 51.2605H160.171C161.119 51.2605 161.751 51.8927 161.751 52.8411C161.751 53.7894 161.119 54.4216 160.171 54.4216H133.301C118.127 54.4216 108.011 64.5374 108.011 79.7111Z" fill="white"/>
<path d="M212.293 0.681641H188.584V105H212.293V0.681641Z" fill="white"/>
<path d="M215.442 25.9711V105H239.151V25.9711C239.151 25.0227 239.783 24.3905 240.731 24.3905C241.68 24.3905 242.312 25.0227 242.312 25.9711V79.7111C242.312 94.8847 252.428 105 267.601 105C282.775 105 292.891 94.8847 292.891 79.7111V0.681641H269.182V79.7111C269.182 80.6594 268.708 81.2916 267.601 81.2916C266.811 81.2916 266.021 80.6594 266.021 79.7111V25.9711C266.021 10.7974 255.905 0.681641 240.731 0.681641C225.558 0.681641 215.442 10.7974 215.442 25.9711Z" fill="white"/>
<path d="M319.724 0.681641H296.015V105H319.724V0.681641Z" fill="white"/>
<path d="M400.321 0.681641H322.872V24.3905H349.742V105H373.451V24.3905H400.321V0.681641Z" fill="white"/>
<path d="M428.735 105H480.894V81.2916H428.735C427.786 81.2916 427.154 80.6594 427.154 79.7111C427.154 78.7627 427.786 78.1305 428.735 78.1305H455.605C470.778 78.1305 480.894 68.0147 480.894 52.8411C480.894 37.6674 470.778 27.5516 455.605 27.5516H428.735C427.786 27.5516 427.154 26.9194 427.154 25.9711C427.154 25.0227 427.786 24.3905 428.735 24.3905H480.894V0.681641H428.735C413.561 0.681641 403.445 10.7974 403.445 25.9711C403.445 41.1447 413.561 51.2605 428.735 51.2605H455.605C456.553 51.2605 457.185 52.0508 457.185 52.8411C457.185 53.9475 456.553 54.4216 455.605 54.4216H428.735C413.561 54.4216 403.445 64.5374 403.445 79.7111C403.445 94.8847 413.561 105 428.735 105Z" fill="white"/>
</svg>
