<?xml version="1.0" encoding="UTF-8"?>
<svg width="134px" height="34px" viewBox="0 0 134 34" version="1.1" xmlns="http://www.w3.org/2000/svg" xmlns:xlink="http://www.w3.org/1999/xlink">
    <title>Group 19</title>
    <defs>
        <filter id="filter-1">
            <feColorMatrix in="SourceGraphic" type="matrix" values="0 0 0 0 0.203922 0 0 0 0 0.807843 0 0 0 0 0.823529 0 0 0 1.000000 0"></feColorMatrix>
        </filter>
        <polygon id="path-2" points="0 0 25.3559322 0 25.3559322 34 0 34"></polygon>
    </defs>
    <g id="Page-1" stroke="none" stroke-width="1" fill="none" fill-rule="evenodd">
        <g id="Desktop-1440" transform="translate(-79.000000, -57.000000)">
            <g id="Group-19" transform="translate(79.000000, 57.000000)">
                <g filter="url(#filter-1)" id="Group-3">
                    <g>
                        <mask id="mask-3" fill="white">
                            <use xlink:href="#path-2"></use>
                        </mask>
                        <g id="Clip-2"></g>
                        <path d="M15.2398395,26.9244797 L18.5024442,26.9244797 C18.8917145,26.9244797 19.2069875,27.2353798 19.2069875,27.6188085 L19.2069875,28.6585328 C19.2069875,29.0424037 18.8917145,29.3533039 18.5024442,29.3533039 L11.7390983,29.3533039 C11.3502766,29.3533039 11.0350036,29.0424037 11.0350036,28.6585328 L11.0350036,21.9372529 C11.0350036,21.5533819 11.3502766,21.2424818 11.7390983,21.2424818 L12.7934466,21.2424818 C13.1827168,21.2424818 13.4979898,21.5533819 13.4979898,21.9372529 L13.4979898,25.2067898 L21.5583052,17.2587149 C20.0510042,16.15 18.2015222,15.4671696 16.1887978,15.4123309 C18.8607702,14.0599376 20.6923135,11.3219823 20.6923135,8.15681582 C20.6923135,3.65208117 16.9888647,0 12.4207697,0 L1.79207812,0 C0.80230925,0 0,0.791181061 0,1.76722164 L0,16.3140739 L0,16.4259625 L9.08596166,7.46558273 L5.77088621,7.46558273 C5.38161599,7.46558273 5.06589452,7.15468262 5.06589452,6.77081165 L5.06589452,5.73152966 C5.06589452,5.34765869 5.38161599,5.03675858 5.77088621,5.03675858 L12.5867029,5.03675858 C12.9755246,5.03675858 13.2907976,5.34765869 13.2907976,5.73152966 L13.2907976,12.4006243 C13.2907976,12.7844953 12.9755246,13.0953954 12.5867029,13.0953954 L11.5323546,13.0953954 C11.1430844,13.0953954 10.8278114,12.7844953 10.8278114,12.4006243 L10.8278114,9.18327263 L0,19.8609001 L0,33.0978148 C0,33.5957856 0.409451283,34 0.914874718,34 L15.9246502,34 C21.133606,34 25.3559322,29.835796 25.3559322,24.6995317 C25.3559322,22.5254422 24.5957789,20.5300208 23.3279599,18.9485432 L15.2398395,26.9244797 Z" id="Fill-1" fill="#263445" mask="url(#mask-3)"></path>
                    </g>
                </g>
                <path d="M54.3291933,27.0009723 C59.0403933,27.0009723 60.6802032,25.3091049 60.6802032,21.6130253 L60.6802032,21.0143646 C60.6802032,18.567664 59.3006806,17.604601 58.207474,17.318285 C59.2225944,17.0840265 60.3418297,16.2511071 60.3418297,13.9866077 L60.3418297,13.6742629 C60.3418297,10.1603845 58.8061347,8.26028729 54.3291933,8.26028729 L46.8068906,8.26028729 C46.3123447,8.26028729 46,8.6246895 46,8.93703425 L46,26.4023115 C46,26.6625988 46.7027757,27.0009723 47.249379,27.0009723 L54.3291933,27.0009723 Z M54.3031646,15.9387624 L49.9043094,15.9387624 L49.9043094,11.7741657 L54.3291933,11.7741657 C56.1251756,11.7741657 56.4375204,12.4509127 56.4375204,13.6742629 L56.4375204,13.9866077 C56.4375204,15.4181878 56.1251756,15.9387624 54.3031646,15.9387624 Z M54.3812508,23.5131225 L49.9043094,23.5131225 L49.9043094,19.0101524 L54.5374231,19.0101524 C56.3334055,19.0101524 56.7758939,19.6348419 56.7758939,21.0143646 L56.7758939,21.5869966 C56.7758939,23.0446054 56.281348,23.5131225 54.3812508,23.5131225 Z M69.399847,27.313317 C69.8943929,27.313317 70.36291,27.0530297 70.36291,26.63657 L70.36291,20.5718762 L72.8876967,20.5718762 L76.5837762,26.63657 C76.926743,27.2245131 78.5839355,27.3052112 79.4070218,27.3126707 L79.5510514,27.313317 C79.7592812,27.313317 80.7744016,27.2612595 80.7744016,26.7146562 C80.7744016,26.5064264 80.6702867,26.2461391 80.4620569,25.8817369 L77.0522934,20.1814452 C79.394879,19.5827845 80.4099994,18.0470894 80.4099994,14.7934983 L80.4099994,14.0386652 C80.4099994,9.37952264 78.2496149,8.26028729 73.4082713,8.26028729 L67.4476923,8.26028729 C66.9531465,8.26028729 66.4846293,8.52057458 66.4846293,8.93703425 L66.4846293,26.6625988 C66.4846293,27.2352308 68.7491288,27.313317 69.399847,27.313317 Z M73.6165011,17.0840265 L70.36291,17.0840265 L70.36291,11.748137 L73.6165011,11.748137 C76.034654,11.748137 76.3564244,12.1381617 76.3746675,13.861819 L76.3755464,14.7934983 C76.3755464,16.6935955 76.1152591,17.0840265 73.6165011,17.0840265 Z M89.0515562,27.313317 C89.5200733,27.313317 90.0146192,27.027001 90.0146192,26.5845126 L90.0146192,8.70277569 C90.0146192,8.28631602 89.5200733,8 89.0515562,8 C88.3487805,8 86.1103098,8.05205746 86.1103098,8.6246895 L86.1103098,26.6886275 C86.1103098,27.2612595 88.3487805,27.313317 89.0515562,27.313317 Z M99.0726265,27.313317 C99.5671723,27.313317 100.061718,27.027001 100.061718,26.5845126 L100.061718,15.2620154 L107.584021,26.7146562 C107.974452,27.2092021 109.822492,27.313317 110.525267,27.313317 C110.967756,27.313317 111.462302,27.0530297 111.462302,26.63657 L111.462302,8.78086187 C111.462302,8.33837348 111.097899,8 110.655411,8 C109.952635,8 107.584021,8.02602873 107.584021,8.54660331 L107.584021,20.1293878 L100.061718,8.6246895 C99.8274596,8.26028729 99.5151149,8 99.0726265,8 C98.3958795,8 96.1574088,8.05205746 96.1574088,8.6246895 L96.1574088,26.6886275 C96.1574088,27.2612595 98.3958795,27.313317 99.0726265,27.313317 Z M120.546348,27.313317 C121.014866,27.313317 121.483383,27.027001 121.483383,26.5845126 L121.483383,17.4744574 L128.901571,26.6625988 C129.389609,27.2482452 130.746967,27.3077249 131.729716,27.3128722 L131.920903,27.313317 C132.311334,27.313317 133.040138,27.2872883 133.040138,26.7146562 C133.040138,26.4803977 132.909995,26.1940816 132.571621,25.777622 L125.569893,17.1100552 L131.634587,9.50966629 C131.998989,9.11923535 132.129133,8.8068906 132.129133,8.57263204 C132.129133,8.02602873 131.400328,8 131.009898,8 C130.020806,8 128.485111,8 127.964536,8.6246895 L121.483383,16.745653 L121.483383,8.70277569 C121.483383,8.28631602 121.014866,8 120.546348,8 C119.843573,8 117.605102,8.05205746 117.605102,8.6246895 L117.605102,26.6886275 C117.605102,27.2612595 119.843573,27.313317 120.546348,27.313317 Z" id="BRINK" fill="#FFFFFF" fill-rule="nonzero"></path>
            </g>
        </g>
    </g>
</svg>