<svg width="323" height="43" viewBox="0 0 323 43" fill="none" xmlns="http://www.w3.org/2000/svg">
<path d="M0.612793 0.804688V42.5985H10.1114V21.0684H22.143V42.5985H31.6415V0.804688H22.143V11.5698H10.1114V0.804688H0.612793Z" fill="white"/>
<path d="M32.8932 22.6515V42.5985H42.3918V31.8334H54.4233V42.5985H63.9219V10.3033C63.9219 4.92075 60.1858 0.804688 53.9167 0.804688C51.5738 0.804688 48.6609 1.3746 45.0514 4.98407L36.7559 13.2795C33.9697 16.0658 32.8932 18.7887 32.8932 22.6515ZM42.3918 21.8916C42.3918 21.575 42.5184 21.3217 42.7084 21.1317L53.2202 10.6199C53.4735 10.3666 53.6635 10.3033 53.8534 10.3033C54.17 10.3033 54.4233 10.4933 54.4233 10.9365V22.3348H42.3918V21.8916Z" fill="white"/>
<path d="M75.3054 42.5985H96.2023V33.0999H75.3054C74.9255 33.0999 74.6722 32.8466 74.6722 32.4667V10.9365C74.6722 10.5566 74.9255 10.3033 75.3054 10.3033H86.0705C86.4504 10.3033 86.7037 10.5566 86.7037 10.9365V21.0684H96.2023V10.9365C96.2023 4.85742 92.1496 0.804688 86.0705 0.804688H75.3054C69.2263 0.804688 65.1736 4.85742 65.1736 10.9365V32.4667C65.1736 38.5458 69.2263 42.5985 75.3054 42.5985Z" fill="white"/>
<path d="M106.953 0.804688H97.454V42.5985H106.953V0.804688ZM118.984 32.4667V42.5985H128.483V32.4667C128.483 26.3876 124.43 22.3348 118.351 22.3348H118.478C117.971 22.3348 117.718 22.0815 117.718 21.7016C117.718 21.3217 117.971 21.0684 118.478 21.0684H118.351C124.43 21.0684 128.483 17.0156 128.483 10.9365V0.804688H118.984V10.9365C118.984 11.3165 118.731 11.5698 118.351 11.5698C112.272 11.5698 108.219 15.6225 108.219 21.7016C108.219 27.7807 112.272 31.8334 118.351 31.8334C118.731 31.8334 118.984 32.0867 118.984 32.4667Z" fill="white"/>
<path d="M139.866 42.5985H160.763V33.0999H139.866C139.486 33.0999 139.233 32.8466 139.233 32.4667C139.233 32.0867 139.486 31.8334 139.866 31.8334H150.631C156.71 31.8334 160.763 27.7807 160.763 21.7016C160.763 15.6225 156.71 11.5698 150.631 11.5698H139.866C139.486 11.5698 139.233 11.3165 139.233 10.9365C139.233 10.5566 139.486 10.3033 139.866 10.3033H160.763V0.804688H139.866C133.787 0.804688 129.734 4.85742 129.734 10.9365C129.734 17.0156 133.787 21.0684 139.866 21.0684H150.631C151.011 21.0684 151.265 21.385 151.265 21.7016C151.265 22.1449 151.011 22.3348 150.631 22.3348H139.866C133.787 22.3348 129.734 26.3876 129.734 32.4667C129.734 38.5458 133.787 42.5985 139.866 42.5985Z" fill="white"/>
<path d="M162.015 10.9365V42.5985H171.513V10.9365C171.513 10.5566 171.767 10.3033 172.147 10.3033H182.912C183.292 10.3033 183.545 10.5566 183.545 10.9365C183.545 11.3165 183.292 11.5698 182.912 11.5698C176.833 11.5698 172.78 15.6225 172.78 21.7016C172.78 27.7807 176.833 31.8334 182.912 31.8334C183.292 31.8334 183.545 32.0867 183.545 32.4667V42.5985H193.044V32.4667C193.044 26.3876 188.991 22.3348 182.912 22.3348H182.975C182.532 22.3348 182.278 22.0815 182.278 21.7016C182.278 21.3217 182.532 21.0684 182.975 21.0684H182.912C188.991 21.0684 193.044 17.0156 193.044 10.9365C193.044 4.85742 188.991 0.804688 182.912 0.804688H172.147C166.067 0.804688 162.015 4.85742 162.015 10.9365Z" fill="white"/>
<path d="M215.192 33.0999H194.295V42.5985H214.559C220.638 42.5985 225.324 38.4825 225.324 32.5933C225.324 28.1606 222.664 25.6277 219.941 23.538L204.427 11.6964C203.984 11.3798 203.794 11.1898 203.794 10.8732C203.794 10.5566 204.047 10.3033 204.427 10.3033H225.324V0.804688H205.06C198.981 0.804688 194.295 4.92075 194.295 10.8732C194.295 15.3059 196.891 17.7755 199.678 19.8652L215.192 31.7068C215.635 32.0234 215.825 32.2134 215.825 32.53C215.825 32.8466 215.572 33.0999 215.192 33.0999Z" fill="white"/>
<path d="M236.707 42.5985H247.472C253.552 42.5985 257.604 38.5458 257.604 32.4667V10.9365C257.604 4.85742 253.552 0.804688 247.472 0.804688H236.707C230.628 0.804688 226.576 4.85742 226.576 10.9365V32.4667C226.576 38.5458 230.628 42.5985 236.707 42.5985ZM236.074 32.4667V10.9365C236.074 10.5566 236.327 10.3033 236.707 10.3033H247.472C247.852 10.3033 248.106 10.5566 248.106 10.9365V32.4667C248.106 32.8466 247.852 33.0999 247.472 33.0999H236.707C236.327 33.0999 236.074 32.8466 236.074 32.4667Z" fill="white"/>
<path d="M268.988 42.5985H279.753C285.832 42.5985 289.885 38.5458 289.885 32.4667V0.804688H280.386V32.4667C280.386 32.8466 280.133 33.0999 279.753 33.0999H268.988C268.608 33.0999 268.355 32.8466 268.355 32.4667V0.804688H258.856V32.4667C258.856 38.5458 262.909 42.5985 268.988 42.5985Z" fill="white"/>
<path d="M301.268 42.5985H322.165V33.0999H301.268C300.888 33.0999 300.635 32.8466 300.635 32.4667V0.804688H291.136V32.4667C291.136 38.5458 295.189 42.5985 301.268 42.5985Z" fill="white"/>
</svg>
